HIERARCHY
ROOT SpineBase
{
  OFFSET 0.000000 0.000000 0.000000
  CHANNELS 6 Xposition Yposition Zposition Zrotation Xrotation Yrotation
  JOINT SpineMid
  {
    OFFSET -0.000000 31.056154 0.000000
    CHANNELS 3 Zrotation Xrotation Yrotation
    JOINT SpineShoulder
    {
      OFFSET 0.027597 23.043371 -0.744457
      CHANNELS 3 Zrotation Xrotation Yrotation
      JOINT Neck
      {
        OFFSET 0.024534 7.620010 -0.569975
        CHANNELS 3 Zrotation Xrotation Yrotation
        JOINT Head
        {
          OFFSET -3.709661 13.025378 1.781636
          CHANNELS 3 Zrotation Xrotation Yrotation
          End Site
          {
            OFFSET 0 0 0
          }
        }
      }
      JOINT ShoulderLeft
      {
        OFFSET -16.428765 -4.566847 7.503550
        CHANNELS 3 Zrotation Xrotation Yrotation
        JOINT ElbowLeft
        {
          OFFSET -3.597795 -27.480890 3.289085
          CHANNELS 3 Zrotation Xrotation Yrotation
          JOINT WristLeft
          {
            OFFSET -0.428385 -22.283627 -4.502715
            CHANNELS 3 Zrotation Xrotation Yrotation
            JOINT HandLeft
            {
              OFFSET -0.692993 -8.137009 -0.617614
              CHANNELS 3 Zrotation Xrotation Yrotation
              JOINT HandTipLeft
              {
                OFFSET 0.532928 -8.190550 0.386950
                CHANNELS 3 Zrotation Xrotation Yrotation
                End Site
                {
                  OFFSET 0 0 0
                }
              }
              JOINT ThumbLeft
              {
                OFFSET -1.961908 -0.205204 -3.090554
                CHANNELS 3 Zrotation Xrotation Yrotation
                End Site
                {
                  OFFSET 0 0 0
                }
              }
            }
          }
        }
      }
      JOINT ShoulderRight
      {
        OFFSET 14.168578 -3.857771 -7.108941
        CHANNELS 3 Zrotation Xrotation Yrotation
        JOINT ElbowRight
        {
          OFFSET 7.107108 -25.096035 -4.334564
          CHANNELS 3 Zrotation Xrotation Yrotation
          JOINT WristRight
          {
            OFFSET 1.979607 -21.624520 -7.224108
            CHANNELS 3 Zrotation Xrotation Yrotation
            JOINT HandRight
            {
              OFFSET -1.790515 -7.604096 -1.203130
              CHANNELS 3 Zrotation Xrotation Yrotation
              JOINT HandTipRight
              {
                OFFSET -0.126306 -7.311252 -0.393700
                CHANNELS 3 Zrotation Xrotation Yrotation
                End Site
                {
                  OFFSET 0 0 0
                }
              }
              JOINT ThumbRight
              {
                OFFSET -2.794106 0.039339 -1.359793
                CHANNELS 3 Zrotation Xrotation Yrotation
                End Site
                {
                  OFFSET 0 0 0
                }
              }
            }
          }
        }
      }
    }
  }
  JOINT HipLeft
  {
    OFFSET -6.723050 0.014824 -0.935893
    CHANNELS 3 Zrotation Xrotation Yrotation
    JOINT KneeLeft
    {
      OFFSET 3.549182 -38.096189 4.582389
      CHANNELS 3 Zrotation Xrotation Yrotation
      JOINT AnkleLeft
      {
        OFFSET 7.258646 -36.351948 8.385201
        CHANNELS 3 Zrotation Xrotation Yrotation
        JOINT FootLeft
        {
          OFFSET -2.579044 -7.953652 -6.110456
          CHANNELS 3 Zrotation Xrotation Yrotation
          End Site
          {
            OFFSET 0 0 0
          }
        }
      }
    }
  }
  JOINT HipRight
  {
    OFFSET 7.079675 1.557860 -6.055374
    CHANNELS 3 Zrotation Xrotation Yrotation
    JOINT KneeRight
    {
      OFFSET 7.225884 -35.934885 -11.196425
      CHANNELS 3 Zrotation Xrotation Yrotation
      JOINT AnkleRight
      {
        OFFSET 11.366823 -37.979221 11.295646
        CHANNELS 3 Zrotation Xrotation Yrotation
        JOINT FootRight
        {
          OFFSET 0.405204 -7.431462 -7.221148
          CHANNELS 3 Zrotation Xrotation Yrotation
          End Site
          {
            OFFSET 0 0 0
          }
        }
      }
    }
  }
}
MOTION
Frames: 7
Frame Time: 0.033333
-18.712860 85.110822 347.199406 -1.238418 0.591118 27.201046 -0.050389 0.010256 -27.237366 -0.048041 -0.028988 -0.060004 0.476775 1.796896 0.901801 0.000000 0.000000 0.000000 -70.797422 -5.779609 -12.497243 -44.881176 11.954941 65.190073 -13.276428 6.984866 -24.701450 4.002777 8.046624 1.777172 0.000000 0.000000 0.000000 0.000000 0.000000 0.000000 41.691455 51.886728 -9.703195 -8.074794 55.136000 -22.682975 -21.224142 14.885573 -60.628162 2.679936 11.164685 32.362671 0.000000 0.000000 0.000000 0.000000 0.000000 0.000000 -0.777167 -2.397815 -27.512253 -1.127865 0.157455 -0.500373 2.548763 1.054807 0.520163 0.000000 0.000000 0.000000 -5.136831 -14.275310 -31.295141 -6.259412 18.838938 5.065791 2.540989 -10.901650 0.845296 0.000000 0.000000 0.000000
-18.709142 85.842122 347.135847 -1.358497 0.585648 27.614074 -0.024568 0.024805 -27.652855 -0.048398 -0.034218 -0.064571 0.584497 2.252985 1.046132 0.000000 0.000000 0.000000 -86.961572 -6.303580 -16.782912 -41.908128 10.900231 81.073669 -12.794300 9.662166 -29.396438 3.762614 9.092821 9.066200 0.000000 0.000000 0.000000 0.000000 0.000000 0.000000 57.569419 60.120064 -21.055558 -3.095944 60.465442 -35.002945 -27.150732 24.356206 -84.842972 12.886273 20.439323 54.557453 0.000000 0.000000 0.000000 0.000000 0.000000 0.000000 -0.607991 -2.088810 -27.896910 -1.111503 -0.387216 -0.592273 2.013597 1.958959 0.821629 0.000000 0.000000 0.000000 -5.197856 -14.182593 -31.677894 -6.130707 18.641812 4.940912 2.107797 -11.351233 1.257112 0.000000 0.000000 0.000000
-18.856274 86.570597 347.050108 -1.634189 0.558078 28.549589 0.061508 0.016114 -28.592821 -0.042558 -0.011535 -0.072261 0.993492 2.842930 1.205763 0.000000 0.000000 0.000000 -100.976801 -6.030162 -20.774782 -39.521690 9.154735 97.797378 -11.571509 11.145447 -36.517792 4.846186 8.958924 18.413471 0.000000 0.000000 0.000000 0.000000 0.000000 0.000000 77.370572 64.925281 -36.874576 6.897368 65.104553 -51.557960 -29.626437 27.233029 -107.638743 7.775550 31.328333 73.470182 0.000000 0.000000 0.000000 0.000000 0.000000 0.000000 -0.072721 -1.855321 -28.763102 -1.296167 -0.950996 -0.700890 2.079224 2.085159 0.858700 0.000000 0.000000 0.000000 -5.110315 -14.244135 -32.664699 -6.255592 18.459171 4.913151 1.810962 -12.025427 1.587455 0.000000 0.000000 0.000000
-19.133253 87.776585 346.883732 -1.885789 0.552475 28.874710 0.090092 0.011653 -28.923684 0.030815 -0.009334 -0.075934 0.931517 3.615462 1.477660 0.000000 0.000000 0.000000 -112.808654 -5.159286 -24.130339 -35.773255 4.842789 109.825128 -8.905376 9.601526 -44.828467 5.012298 11.171361 39.270902 0.000000 0.000000 0.000000 0.000000 0.000000 0.000000 102.669723 66.223309 -57.980806 14.629861 63.322514 -65.211411 -29.415297 30.452310 -125.206389 -3.129889 34.149253 88.506824 0.000000 0.000000 0.000000 0.000000 0.000000 0.000000 0.482077 -1.730652 -29.016933 -1.571317 -1.411640 -0.808267 1.305144 3.140271 1.263367 0.000000 0.000000 0.000000 -4.829961 -14.377717 -33.029617 -6.439766 18.269001 4.915018 3.174649 -16.581934 0.180031 0.000000 0.000000 0.000000
-19.271537 89.319439 346.670618 -1.847086 0.597043 28.561734 0.027026 0.056586 -28.611715 0.020419 -0.069012 -0.079245 -0.125134 4.566155 1.949458 0.000000 0.000000 0.000000 -123.779793 -4.506327 -28.009872 -28.869594 0.742062 116.563147 -7.987446 9.928338 -52.441068 2.946798 12.745658 65.805856 0.000000 0.000000 0.000000 0.000000 0.000000 0.000000 124.572137 62.914944 -75.291279 20.931418 57.866366 -74.347257 -21.454941 21.772263 -122.446255 -6.888022 20.688509 64.680979 0.000000 0.000000 0.000000 0.000000 0.000000 0.000000 1.337247 -1.407193 -28.535687 -2.339923 -2.166316 -1.016366 1.471033 2.813190 1.390684 0.000000 0.000000 0.000000 -4.881328 -14.293847 -32.654674 -6.262874 18.140799 4.804646 0.929676 -12.533637 2.430483 0.000000 0.000000 0.000000
-19.323367 90.881885 346.502931 -1.631147 0.464606 28.664554 -0.194073 0.221508 -28.719567 -0.123354 -0.229837 -0.095420 -1.760031 5.477237 2.510229 0.000000 0.000000 0.000000 -131.327467 -3.237745 -29.632183 -22.571230 -3.928953 117.330956 -10.733461 7.972582 -77.561200 -4.170808 16.533706 107.633391 0.000000 0.000000 0.000000 0.000000 0.000000 0.000000 140.395194 57.610244 -86.648437 20.669956 44.478157 -66.922182 -17.872754 22.730940 -128.949728 -10.799201 15.236037 60.605359 0.000000 0.000000 0.000000 0.000000 0.000000 0.000000 0.438344 -0.879449 -28.767584 -1.689934 -2.021873 -0.938254 2.481167 2.159235 0.956848 0.000000 0.000000 0.000000 -5.235288 -13.899057 -32.667889 -5.948608 18.146584 4.679400 -1.253408 -9.915427 4.515251 0.000000 0.000000 0.000000
-19.304110 92.501544 346.265184 -1.307463 0.444481 27.828593 -0.365537 0.234055 -27.880838 -0.169235 -0.279625 -0.092069 -4.417276 6.047489 3.143474 0.000000 0.000000 0.000000 -137.374414 -2.082269 -30.806025 -15.907005 -8.094925 111.905664 -13.213544 7.269999 -100.455740 -12.572409 15.063289 142.953745 0.000000 0.000000 0.000000 0.000000 0.000000 0.000000 150.778038 52.823812 -93.991386 19.496433 31.897665 -56.634505 -15.911499 31.224923 -149.117122 -10.153084 21.387765 111.975999 0.000000 0.000000 0.000000 0.000000 0.000000 0.000000 0.015504 -0.518782 -27.954869 -1.669719 -2.061244 -0.963370 2.687913 2.113796 0.992204 0.000000 0.000000 0.000000 -5.629434 -13.601994 -31.700370 -5.470696 18.215631 4.517045 -3.020259 -8.581260 6.103226 0.000000 0.000000 0.000000
